<?xml version="1.0" encoding="UTF-8"?>
<svg id="Layer_1" data-name="Layer 1" xmlns="http://www.w3.org/2000/svg" version="1.1" viewBox="0 0 708.66 708.66">
  <defs>
    <style>
      .cls-1 {
        fill: #c1e8fb;
      }

      .cls-1, .cls-2, .cls-3, .cls-4, .cls-5, .cls-6 {
        stroke-width: 0px;
      }

      .cls-1, .cls-4, .cls-6 {
        fill-rule: evenodd;
      }

      .cls-2 {
        fill: #d9f1fd;
      }

      .cls-3, .cls-6 {
        fill: #003d58;
      }

      .cls-4 {
        fill: #87d6f8;
      }

      .cls-7 {
        fill: #27aae1;
        font-family: MyriadPro-Regular, 'Myriad Pro';
        font-size: 100px;
      }

      .cls-5 {
        fill: #00aeef;
      }
    </style>
  </defs>
  <g>
    <g>
      <path class="cls-5" d="M245.71,153.83c.42.28,1.14.45.65-.16-.67-.19-.97.06-1.21-.74-.33.53-.66,1.07-1,1.6.27.64.76,1.2,1.78,1.66,1.53-1.16-1.76-1.19-.23-2.36Z"/>
      <path class="cls-5" d="M237.56,157.14c-.54,1.59-1.55,1.18-2.14,2.57.56.32.77.73.96,1.14,1.36.12.37-2.71,1.49-2.41.19.84,2.19,4.25,2.72,2.8-2.7-1.39-.38-2.61-.27-4.06-.97,1.72-1.34.21-2.76-.03Z"/>
      <path class="cls-5" d="M316.06,118.3c2.27.94,1.29,2.92,2.53,4.9,1.43-.76,5.06-.66,5.8-3.1,4.21,2.04,8.35-2.22,10.17-2.05-1.08-.25-2.32-1.12-3.16-.29.27.28.8.5.56.9-3.2-.61-4.34.2-8.25-2.87-.96,1.73,3.08,2.25,2.64,3.86-1.45-1.27-2.29.06-3.11,1.42-1.07-1.14-1.74-.6-2.51-.44-.28-.75-1.26-1.31-.86-2.2,1.7-.23,1.99,1.92,3.71,1.17-.93-.92.04-2.29-1.41-3.1-2.55,1.77-6.72.39-9.22,3.21,1.15,1.11,2.17,2.23,3.53,3.3,1.45-1.96-1.6-2.84-.42-4.72Z"/>
      <path class="cls-5" d="M234.23,163.42c-1.05-1.04-1.61-.03-2.66-1.08-.61.9-2.48,2.3-.59,1.86-.41-1.07,2.23,1.58,3.25-.78Z"/>
      <path class="cls-5" d="M313.53,125.08c.87-.17,1.42-1.75,2.29-1.91-1.25,0-2.45.29-3.65.52.46.46.42,1.05,1.36,1.4Z"/>
      <path class="cls-5" d="M309.13,126.81c1.15-.97,2.61-.58,3.75-1.58-1.43-.55-.77-1.52-2.01-1.24.35,1.94-2.36.93-1.74,2.81Z"/>
      <path class="cls-5" d="M469.57,114.67c-1.01.21-1.03,1.71-.43,2.51,1-.21,2.01-1.93.43-2.51Z"/>
      <path class="cls-5" d="M203.18,173.17c.75-1.21.33-2.13-.36-3.01-.77.87.18,1.33-.85,2.27.4.25.8.5,1.2.74Z"/>
      <path class="cls-5" d="M200.34,174.19c1.52,1.14,2.93,1.81,3.96.79-.26-.29-.79-.51-.56-.91.43.28,1.15.45.65-.15-.59-.1-1.18-.14-1.71.06.88,1.49-2.09-1.28-2.34.21Z"/>
      <path class="cls-5" d="M377.57,112.36c1.73.31.78,2.98,2.58,2.14-.87-.69-.27-1.67.75-1.2,3.11,1.44,3.06,3.62,4.39,5.49,3.71,2.42,11.7,2.02,12.57,6.65-4.04,2.29-8.34-3.08-11.84-.64,8.78,8.47,26.88,9.06,30.5,19.95-4.75.74-9.57-5.19-13.63-6.75-.28,1.39-2.41.62-3.59,2.23-.37,1.58,2.54,2.38.67,4.31-1.04-.29-2.08-.54-3.11-.8-.06-.04-.13-.09-.19-.13,0,.03-.02.05-.02.07-27.73-6.64-54.85.44-75.76,9.82-1.74.12-3.53.18-5.28.66-1.74.48-3.64,2.03-5.55,2.69-5.49,1.9-10.39,3.43-15.67,6.45-9.67,5.55-22,11.07-31.68,14.36-3.43,5.37-7.17,9.4-12.5,6.74-1.82,3.01-4.34,3.01-6.72,3.65-7.04,7.06-14.39,12.78-21.66,18.88-.87-.3-1.54.24-2.51-.44-13.91,11.44-24.26,31.69-33.35,49.48-5.89,11.55-10.6,23.69-12.86,34.33-3.96,8.96-4.38,17.08-6.34,25.56-.73,1.27-1.97.37-2.55,2.32-.24.98,1.73,1.44,1.27,2.44-1.61,15.88-2.06,28.63-1.22,44.31-.5.8-1,1.61-1.49,2.41,1.54,9.88,5.73,19.14,8.19,28.79,5.53-1.33,10.72-2.84,14.61-4.63,56.05-10.04,143.35-17.04,231.52-13.44,12.66.52,24.63.52,35.6.88,38.78,1.27,77.56,5.06,109.59,10.53.53-5.15,1.17-10.22,2.46-14.69.27-.96,1.38-1.88,1.74-2.82,3.03-7.87-.17-17.79,4.12-24.7,4.15,3.4.55,11.54,1.89,16.74-.48,8.52-1.61,17.48-3.57,26.64,3.54.65,6.99,1.32,10.33,2.01,8.74-40.01,3.64-77.62-6.8-113.22.61-2.78.11-5.3-.79-7.73,1.16-8.3-6.07-14.6-5.38-22.8-1.7-1.32-1.95-2.97-3.44-4.35,0-7.45-5.06-13.71-7.28-20.63-2-1.47-2.9-3.21-4.89-4.68-1.04-7.31-7.52-14.01-12.79-20.71-1.57-1.99-2.45-4.48-4.55-6.14-5.6-4.41-7.52-7.38-9.74-12.14-8.22-3.68-14.06-12.36-21.71-16.18-1.9-8.29-16.69-12.83-21.17-19.75.68-.54,1.88,1.21,2.51.43-6.44-5.01-16.59-7.55-20.69-13.34.6,1.38-1.78,1.36-3.04,3.14,3.42.66,6.13,3.89,6.01,6.48-4.78-3.35-9.48-4.62-12.64-8.36,1.46-.13,3.12.58,4.62.63-7.96-5.46-19.63-6.17-27.38-9.69-1.13-.51-2.71-1.42-3.62-2.24-2.26-2.01-6.12-3.58-7.06-6.58,12.26,1.88,24.76,4.89,37.93,10.63.97,1.28-1.2,1.35.62,2.6,3.65-1.57,5.24.94,9.07.61-1.08-1.05.14-1.4.84-2.27,10.41,2.49,20.24,7.94,31.97,13.08-.44-.35-1.19-.63-.95-1.14,1.64,1.5.81-.37,1.7-.06.67.76-1.14,2.1.62,2.6,10.22,4.97,16.17,10.71,24.65,14.12.25-2.13-4.56-3.04-3.99-5.25-4.89-1.91-9.91-6.6-15.24-7.74-.41-1.05-1.17-2.02-2.07-2.95-5.28-1.98-9.96-4.56-15.89-7.6-6.31-3.23-12.69-5.09-18.66-7.62-11.16-4.74-21.99-6.94-33.2-11.06.76.45.66.84-.1,1.05-5.02-1.17-10.21-2.3-15.62-3.53-7.11-1.59-14.94-1.75-19.65-6,.69-1.98,2.42.51,3.27-.78-2.03-1.28-3.77-1.37-5.89-3.07,0-1.07,1.63-1.81.93-3.32-3.71-1.76-5.57-3.96-6.01-6.49-2.12-.28-4.3-.76-6.16.08-1.82,1.46,1.14,4.47-.42,6.98-1.19.76-2.91-.69-3.9.92,0,2.41,1.37,4.49-1.31,7.53-15.87,2.16-32.51,1.15-47.42,7.42-.09.83,2.03,1.13.87,2.21-2.48-1.74-3.44-3.14-5.58-1.77,2.58.49,4.52,2.93,8.55,4.17,12.6-3.9,25.87-5.01,39.19-5.83Z"/>
      <path class="cls-5" d="M210.61,171.08c2.68.4,2.31,2.04,3.27,3.69,1.22-.15,1.82-2.98,3.04-3.13-2.56-1.03-.55-5.11-3.69-3.95-.1.71,1.52,1.02,1.12,1.81-.7.45-1.92-1.31-2.36.21,1.27,1.39,3.18.49,2.57,2.15-1.38-.55-2.99-2-3.95-.78Z"/>
      <path class="cls-5" d="M197.59,185.84c.42.36,1.17.64.96,1.15-.44.4-1.47,2.53-.35,1.46.51-1.77,1.71-.54,2.3-1.92-1.07-.66-2.23-1.7-2.91-.69Z"/>
      <path class="cls-5" d="M198.1,177.81c.96.58.75,1.43,2.16,1.9.72-1.41-1.22-2.62-2.16-1.9Z"/>
      <path class="cls-5" d="M300.79,125c-1.29-1.1-2.29-.94-3.17-.29,1.13.42,2.42,1.52,3.17.29Z"/>
      <path class="cls-5" d="M186.33,183.34c1.16-1.08-.99-1.37-.21-2.35.53.33,1.07.66,1.6,1,1.09-1.63.51-2.88.39-4.22-.37.4-.84.35-1.31.31.35,1.95-.91,1.74-2.24,3.62,1.07.42.42,1.27,1.76,1.64Z"/>
      <path class="cls-5" d="M176.05,193.68c2.26-.65,3.83,5.24,7.2,2.77-1.36-1.68-3.58-1.14-3.53-3.28.8.49,1.62,1,2.41,1.49.61-.72-.05-1.14-.05-1.7.59.02,3.32,1.75,3.77,2.88-.25,1.1-3.13-1.93-2.11-.19,1.99.97,3.02,1.11,4.42,2.73,2.02-3.04-.39,1.56.81.5.44-.57.77-1.58,1.4-1.36-.14.72-1.76,1.78-.84,2.25,1.07-1.28,2.22-2.24,3.14-4.18-4.28-3.41-8.82-7.33-12.93-5.2.44.36,1.19.64.97,1.15-1.7-.39-3.55-1.47-4.72.41.76.4.7.99.06,1.71Z"/>
      <path class="cls-5" d="M193.92,193.59c.81-1.53.39-1.89,1.74-2.82-1.59.08-2.45-1.33-2.36.22-1.97-.84-3.22-1.8-5.87-3.08-.8,1.05-1.49,1.07-3.1,1.43,1.83.9,7.35-.27,9.6,4.26Z"/>
      <path class="cls-5" d="M183.6,187.78c-.43-.39.03-.6.5-.81-.02-1.51-3.62-1.94-2.76-.03.43-1.14,1.25,2.11,2.26.84Z"/>
      <path class="cls-5" d="M139.56,402.91c5.06-1.11,10.14-2.2,15.2-3.26-3.37-9.83-5.98-19.82-7.9-29.9-6.65-39.8-2.08-82.27,17.47-128.24.38-1.13-2.72-1.43-1.68-2.71,1.15.97,1.93.4,2.93.68,2.56-6.24,8.6-12.48,8.27-18.8.93.07,2.11.07,1.8-1.11.37-1.23-2.06-1.81-1.42-3.1.79.49,1.6.99,2.41,1.49.66-1.07,1.33-2.15,1.99-3.23-.94-1.26-4.02-.34-2.96-2.39,1.44-.76,2,1.56,3.22,1.98.83-1.34,1.66-2.68,2.49-4.03-1.76-1.3-3.01-2.73-3.44-4.35,1.35-.75,1.36,2.01,2.68,1.1-.37-.71-1.37-1.28-.22-2.35.64.3,1.4,1.05,1.86.59-.72-.52-1.18-1.09-1.11-1.8,1.75-.81,4.13,1.01,5.77-.33-2.13-3.55-8.49.19-9.52-5.31,1.09-.26,2.79,2.07,3.57.53-2.35-1.11-5.05-3-5.98-2.02-1.46,1.48,1.54,1.93.77,3.25-2.59-.47-2.54.46-2.18,1.74-.04.06-.08.12-.11.19.06,0,.11.02.18.03,1.55.24,2.49.59,3.44.67-.96-.08-1.89-.43-3.44-.67.34,1.13.81,2.48-.07,3.38-1.63-.19-1.25-3.33-2.41-1.49-10.95,14.79-18.63,31.81-29.19,48.15-.51,9.07-6.05,17.73-5.77,26.47.12,3.62,1.14,6.14.85,9.42-.27,3.21-1.1,6.45-1.75,10.03-2.08,11.62-3.36,23.46-4.83,34.85.96,5.37-.43,11.32.85,16.64-.86,1.23.23,2.01-.94,3.31,2.5,17,4.78,34.05,9.2,50.59Z"/>
      <path class="cls-5" d="M154.12,359.78c-1.04-2.86-.4-7.93-3.21-9.22,1.36,2.77.37,7.93,3.21,9.22Z"/>
      <path class="cls-5" d="M276.2,124.28c.77-.99.93-1.82-.21-2.35-.32.56-.74.76-1.16.95.47.47.43,1.05,1.36,1.4Z"/>
      <path class="cls-5" d="M207.08,160.56c-.2.19-.34.4-.44.61.18-.07.34-.24.44-.61Z"/>
      <path class="cls-5" d="M201.58,172.18c-.47-.84-5.63-3-5.74-2.43,3.21.43,3.56,4.14,5.74,2.43Z"/>
      <path class="cls-5" d="M309.75,122.19c-.75-.39-.7-.98-.05-1.7-1.58-.79-2.57.78-3.91.93.94.58,1.88,1.16,2.82,1.74.33-.56.74-.76,1.15-.97Z"/>
      <path class="cls-5" d="M216.06,169.44c1.34.37.69,1.21,1.76,1.65,2.04-2.54,5.95-4.87,6.98-6.82-.24.3-2.08.4-1.45-.34.56-1.04,1.24-1.54,2.05-1.5.57.31.76.72.95,1.14,2.77-3.32,5.52-6.74,8.79-7.92,4.55-7.41,10.72-8,16.92-8.47-.54,1.27,1.14,2.02.76,3.25-2.33-.15-4.55.16-6.51,1.55,2.93.78,5.53.12,8.12-.55,1.27.64,1.76,2.64,3.08,1.34-.22-1.07-2.18-.62-1.27-2.45.17.87,1.5,1.48,2.57,2.15,3.98-1.6,7.26-6.17,11.91-4.89,2.58-5.09,6.53-4.39,9.59-7.41.9-1.19-1.8.3-.95-1.16.79-.47,2.05-.17,2.26.84.97-.92-.29-1.3.19-2.11,3.25,1.67,5.28-1.84,8.06-2.26-.83-.94-2.82.43-2.66-1.09,1.27-.2,1.12-1.02,1.8-1.11.1.38,1.33,2.12,2.01,1.24.02-1.55,4.65-.1,4.36-3.43,2.93,1.71,5.65-.95,5.65-3.75,1.23,3.39,5.1.27,7.46-.38-2.42-1.03-3.45-2.39-3.68-3.94-1.44.09-.99.3-.99,1.6-.3-.83-.72-1.09-1.61-.99-1.57,1.29.09,1.82-.68,2.91-.96.28-2.3-.97-3.01.37.72.61,1.14-.05,1.71-.06-.72,1.31-1.5,2.44-2.55,2.34-1.19-1.36-3.59-2.12-4.68-2.35.56,1.19,0,1.36-.84,2.26,1.04.57,1.73,0,1.35,1.4-2.05.32-1.4-2.21-1.82-3.35-.82,1.39-1.6,2.88-2.79,2.73-.09-.52-.91-1.24-2.02-1.25-1.02,2.36,1.5,2,1.57,3.75-1.31.34-1.03-.11-.74,1.2-1.34-.35-2.46.28-3.96-.78,1.55-.34.09-1.18.18-2.11,1.07.76,1.76.24,1.55-.7-2.09-.12-5.53,1.79-6.05,3.49,1.41-.2,2.73,2.55,3.93,3.54-.76.3-3.07,1.4-3,.37,1.38-.3.75-1.34.84-2.27-1.57-.43-3.1-2.3-3.07-1.34.86.72,1.49,1.48,1.27,2.45-1.35-.72-1.26-1.75-2.97-2.39-2.5,1.04-4.62,3.68-7.5,3.15,1.13-4.65-2.46-7.33-6.9-5.94-9.41,5.37-22.63,2.14-29.63,12.85-1.82-.44-3.43.03-5.1.18-4.95,5.96-14.81,6.01-16.84,14.64-.81-.38-.61-1.01-1.36-1.4-.41.67-.83,1.34-1.24,2.01.1,4.61,11.81,2.74,8.23,10.09Z"/>
      <path class="cls-5" d="M205.81,165.33c1-.73,3.9,1.87,1.51,2.05,2.6,1.35.33-1.81,2.46-1.26-1.55-.82-3.97-3.2-3.14-4.96-.56.21-1.36-.6-1.75.26.35.49.64.99.7,1.55-1.21.18-.48-.35-1.61-1-.33.57-.74.77-1.15.96,2.63-.05,3.27,2.55,2.97,2.39Z"/>
      <path class="cls-5" d="M202.36,168.21c-.23-1.68,1.27.76,2.35-.2-2.52-1.35-4.15-1.93-5.57-1.78,1.59.34,1.71,2.75,3.21,1.98Z"/>
    </g>
    <g>
      <path class="cls-2" d="M301.9,248.24c.23.16.63.25.36-.09-.37-.11-.54.03-.67-.41-.18.29-.37.59-.55.89.15.35.42.67.98.92.85-.64-.97-.66-.13-1.3Z"/>
      <path class="cls-2" d="M297.39,250.07c-.3.88-.86.65-1.18,1.42.31.18.43.4.53.63.75.06.21-1.5.82-1.33.1.46,1.21,2.35,1.5,1.55-1.49-.77-.21-1.44-.15-2.25-.54.95-.74.11-1.53-.02Z"/>
      <path class="cls-2" d="M340.78,228.6c1.26.52.71,1.61,1.4,2.71.79-.42,2.8-.36,3.21-1.71,2.33,1.13,4.61-1.23,5.62-1.13-.6-.14-1.28-.62-1.75-.16.15.15.44.28.31.5-1.77-.34-2.4.11-4.56-1.59-.53.95,1.71,1.25,1.46,2.13-.8-.7-1.26.03-1.72.79-.59-.63-.96-.33-1.39-.24-.16-.41-.7-.73-.47-1.22.94-.13,1.1,1.06,2.05.65-.51-.51.02-1.26-.78-1.71-1.41.98-3.71.22-5.1,1.77.64.62,1.2,1.23,1.95,1.83.8-1.08-.89-1.57-.23-2.61Z"/>
      <path class="cls-2" d="M295.55,253.54c-.58-.58-.89-.02-1.47-.6-.34.5-1.37,1.27-.33,1.03-.23-.59,1.23.87,1.8-.43Z"/>
      <path class="cls-2" d="M339.38,232.35c.48-.1.79-.97,1.27-1.06-.69,0-1.35.16-2.02.29.26.26.23.58.75.77Z"/>
      <path class="cls-2" d="M336.95,233.3c.64-.54,1.44-.32,2.07-.87-.79-.31-.43-.84-1.11-.68.2,1.07-1.31.51-.96,1.56Z"/>
      <path class="cls-2" d="M425.63,226.59c-.56.12-.57.94-.24,1.39.55-.11,1.11-1.07.24-1.39Z"/>
      <path class="cls-2" d="M278.39,258.93c.41-.67.18-1.18-.2-1.66-.43.48.1.73-.47,1.25.22.14.44.27.66.41Z"/>
      <path class="cls-2" d="M276.82,259.49c.84.63,1.62,1,2.19.44-.14-.16-.43-.28-.31-.5.24.16.64.25.36-.08-.33-.06-.65-.08-.94.03.49.83-1.16-.71-1.29.12Z"/>
      <path class="cls-2" d="M374.78,225.31c.96.17.43,1.65,1.42,1.18-.48-.38-.15-.92.41-.67,1.72.8,1.69,2,2.42,3.04,2.05,1.34,6.46,1.12,6.95,3.68-2.24,1.27-4.61-1.7-6.54-.35,4.85,4.68,14.86,5.01,16.86,11.03-2.62.41-5.29-2.87-7.54-3.73-.15.77-1.33.34-1.99,1.23-.21.87,1.4,1.32.37,2.38-.57-.16-1.15-.3-1.72-.44-.04-.02-.07-.05-.11-.07,0,.02,0,.03-.01.04-15.33-3.67-30.32.25-41.88,5.43-.96.07-1.95.1-2.92.37-.96.27-2.01,1.12-3.07,1.48-3.03,1.05-5.74,1.9-8.66,3.57-5.34,3.07-12.16,6.12-17.51,7.94-1.9,2.97-3.96,5.19-6.91,3.72-1.01,1.67-2.4,1.66-3.71,2.01-3.89,3.9-7.96,7.06-11.97,10.44-.48-.17-.85.13-1.39-.24-7.69,6.32-13.41,17.52-18.43,27.35-3.26,6.38-5.86,13.09-7.11,18.98-2.19,4.95-2.42,9.44-3.5,14.13-.41.7-1.09.2-1.41,1.28-.13.54.95.79.7,1.35-.89,8.78-1.14,15.83-.68,24.49-.28.44-.55.89-.82,1.33.85,5.46,3.17,10.58,4.53,15.91,3.06-.74,5.93-1.57,8.07-2.56,30.98-5.55,79.23-9.42,127.97-7.43,7,.29,13.61.29,19.68.49,21.44.7,42.87,2.8,60.58,5.82.29-2.84.64-5.65,1.36-8.12.15-.53.76-1.04.96-1.56,1.67-4.35-.09-9.83,2.28-13.65,2.3,1.88.3,6.38,1.05,9.25-.26,4.71-.89,9.66-1.97,14.73,1.96.36,3.86.73,5.71,1.11,4.83-22.12,2.01-42.9-3.76-62.58.34-1.54.06-2.93-.44-4.27.64-4.59-3.36-8.07-2.98-12.6-.94-.73-1.08-1.64-1.9-2.4,0-4.12-2.8-7.58-4.03-11.4-1.1-.81-1.6-1.77-2.71-2.59-.57-4.04-4.16-7.75-7.07-11.44-.87-1.1-1.35-2.48-2.51-3.39-3.09-2.44-4.16-4.08-5.38-6.71-4.54-2.04-7.77-6.83-12-8.94-1.05-4.58-9.23-7.09-11.7-10.92.37-.3,1.04.67,1.39.24-3.56-2.77-9.17-4.17-11.44-7.37.33.76-.98.75-1.68,1.74,1.89.37,3.39,2.15,3.32,3.58-2.64-1.85-5.24-2.55-6.99-4.62.81-.07,1.72.32,2.55.35-4.4-3.02-10.85-3.41-15.13-5.35-.63-.28-1.5-.78-2-1.24-1.25-1.11-3.38-1.98-3.9-3.64,6.77,1.04,13.69,2.7,20.96,5.88.54.71-.66.75.34,1.44,2.02-.87,2.9.52,5.02.34-.6-.58.08-.77.47-1.26,5.76,1.38,11.19,4.39,17.67,7.23-.24-.19-.66-.35-.53-.63.91.83.45-.21.94-.03.37.42-.63,1.16.35,1.44,5.65,2.75,8.94,5.92,13.63,7.81.14-1.18-2.52-1.68-2.21-2.9-2.7-1.06-5.47-3.65-8.42-4.28-.23-.58-.65-1.12-1.14-1.63-2.92-1.1-5.51-2.52-8.79-4.2-3.49-1.78-7.02-2.82-10.31-4.21-6.17-2.62-12.16-3.84-18.35-6.12.42.25.37.47-.05.58-2.77-.65-5.64-1.27-8.64-1.95-3.93-.88-8.25-.97-10.86-3.32.38-1.09,1.34.28,1.8-.43-1.12-.71-2.08-.75-3.25-1.7,0-.59.9-1,.52-1.83-2.05-.97-3.08-2.19-3.32-3.59-1.17-.15-2.37-.42-3.41.04-1,.81.63,2.47-.23,3.86-.66.42-1.61-.38-2.16.51,0,1.33.76,2.48-.73,4.16-8.77,1.19-17.97.64-26.21,4.1-.05.46,1.12.62.48,1.22-1.37-.96-1.9-1.74-3.08-.98,1.42.27,2.5,1.62,4.72,2.31,6.96-2.16,14.3-2.77,21.66-3.22Z"/>
      <path class="cls-2" d="M282.49,257.77c1.48.22,1.28,1.13,1.81,2.04.67-.08,1-1.64,1.68-1.73-1.41-.57-.3-2.82-2.04-2.18-.05.39.84.56.62,1-.39.25-1.06-.72-1.31.11.7.77,1.76.27,1.42,1.19-.77-.3-1.65-1.1-2.18-.43Z"/>
      <path class="cls-2" d="M275.3,265.93c.23.2.65.35.53.64-.24.22-.82,1.4-.2.81.28-.98.95-.3,1.27-1.06-.59-.36-1.23-.94-1.61-.38Z"/>
      <path class="cls-2" d="M275.58,261.49c.53.32.42.79,1.19,1.05.4-.78-.67-1.45-1.19-1.05Z"/>
      <path class="cls-2" d="M332.34,232.3c-.71-.61-1.27-.52-1.75-.16.63.23,1.34.84,1.75.16Z"/>
      <path class="cls-2" d="M269.07,264.55c.64-.59-.54-.76-.11-1.3.29.18.59.36.89.55.6-.9.28-1.59.22-2.33-.21.22-.46.19-.73.17.2,1.08-.5.96-1.24,2,.59.23.23.7.97.91Z"/>
      <path class="cls-2" d="M263.39,270.26c1.25-.36,2.11,2.9,3.98,1.53-.75-.93-1.98-.63-1.95-1.81.44.27.89.55,1.33.82.34-.4-.03-.63-.03-.94.32.01,1.83.97,2.08,1.59-.14.61-1.73-1.07-1.17-.1,1.1.54,1.67.62,2.45,1.51,1.12-1.68-.21.86.45.28.24-.31.43-.87.77-.75-.08.4-.97.98-.46,1.25.59-.71,1.22-1.24,1.73-2.31-2.37-1.88-4.87-4.05-7.14-2.87.24.2.66.35.53.64-.94-.22-1.96-.81-2.61.23.42.22.38.55.03.95Z"/>
      <path class="cls-2" d="M273.27,270.21c.45-.84.22-1.04.96-1.56-.88.04-1.35-.74-1.3.12-1.09-.46-1.78-.99-3.25-1.7-.44.58-.82.59-1.71.79,1.01.5,4.06-.15,5.31,2.35Z"/>
      <path class="cls-2" d="M267.56,267c-.24-.22.02-.33.28-.45-.01-.84-2-1.07-1.53-.02.24-.63.69,1.17,1.25.46Z"/>
      <path class="cls-2" d="M243.22,385.91c2.8-.61,5.61-1.21,8.4-1.8-1.86-5.44-3.31-10.96-4.37-16.53-3.68-22-1.15-45.47,9.66-70.88.21-.63-1.51-.79-.93-1.5.64.54,1.07.22,1.62.38,1.42-3.45,4.75-6.9,4.57-10.39.51.04,1.17.04,1-.61.2-.68-1.14-1-.78-1.71.44.27.88.55,1.33.82.36-.59.73-1.19,1.1-1.78-.52-.7-2.22-.19-1.64-1.32.8-.42,1.11.86,1.78,1.1.46-.74.92-1.48,1.37-2.23-.97-.72-1.66-1.51-1.9-2.41.75-.42.75,1.11,1.48.61-.21-.4-.76-.71-.12-1.3.35.17.77.58,1.03.32-.4-.29-.65-.6-.61-.99.97-.45,2.28.56,3.19-.18-1.18-1.96-4.69.1-5.26-2.94.6-.15,1.54,1.15,1.97.29-1.3-.61-2.79-1.66-3.31-1.12-.81.82.85,1.07.42,1.8-1.43-.26-1.4.25-1.2.96-.02.03-.04.07-.06.1.04,0,.06.01.1.02.86.13,1.38.33,1.9.37-.53-.04-1.04-.24-1.9-.37.19.63.45,1.37-.04,1.87-.9-.11-.69-1.84-1.33-.82-6.05,8.17-10.3,17.58-16.13,26.62-.28,5.02-3.34,9.8-3.19,14.63.06,2,.63,3.39.47,5.21-.15,1.77-.61,3.56-.97,5.55-1.15,6.42-1.86,12.97-2.67,19.26.53,2.97-.24,6.26.47,9.2-.48.68.13,1.11-.52,1.83,1.38,9.4,2.64,18.82,5.09,27.96Z"/>
      <path class="cls-2" d="M251.27,362.07c-.57-1.58-.22-4.38-1.78-5.1.75,1.53.21,4.38,1.78,5.1Z"/>
      <path class="cls-2" d="M318.75,231.9c.43-.55.51-1-.12-1.3-.18.31-.41.42-.64.52.26.26.24.58.75.78Z"/>
      <path class="cls-2" d="M280.54,251.96c-.11.11-.19.22-.25.34.1-.04.19-.13.25-.34Z"/>
      <path class="cls-2" d="M277.5,258.38c-.26-.47-3.11-1.66-3.17-1.34,1.77.24,1.97,2.29,3.17,1.34Z"/>
      <path class="cls-2" d="M337.29,230.75c-.41-.22-.39-.54-.03-.94-.87-.44-1.42.43-2.16.51.52.32,1.04.64,1.56.96.18-.31.41-.42.63-.54Z"/>
      <path class="cls-2" d="M285.5,256.87c.74.21.38.67.98.91,1.13-1.4,3.29-2.69,3.86-3.77-.13.17-1.15.22-.8-.19.31-.57.69-.85,1.13-.83.31.17.42.4.53.63,1.53-1.84,3.05-3.72,4.86-4.38,2.51-4.1,5.92-4.42,9.35-4.68-.3.7.63,1.12.42,1.8-1.29-.09-2.51.09-3.6.85,1.62.43,3.05.07,4.49-.3.7.35.97,1.46,1.7.74-.12-.59-1.21-.34-.7-1.36.1.48.83.82,1.42,1.19,2.2-.88,4.01-3.41,6.58-2.7,1.42-2.81,3.61-2.43,5.3-4.1.5-.66-1,.16-.53-.64.44-.26,1.13-.1,1.25.47.54-.51-.16-.72.11-1.16,1.8.92,2.92-1.02,4.45-1.25-.46-.52-1.56.24-1.47-.6.7-.11.62-.57.99-.61.05.21.74,1.17,1.11.69.01-.86,2.57-.06,2.41-1.9,1.62.95,3.12-.52,3.12-2.07.68,1.88,2.82.15,4.12-.21-1.34-.57-1.91-1.32-2.03-2.18-.79.05-.55.17-.55.88-.17-.46-.4-.6-.89-.55-.86.72.05,1-.38,1.61-.53.16-1.27-.54-1.66.21.4.34.63-.03.95-.03-.4.73-.83,1.35-1.41,1.29-.66-.75-1.99-1.17-2.59-1.3.31.66,0,.75-.47,1.25.58.32.96,0,.75.77-1.14.17-.78-1.22-1-1.85-.45.77-.89,1.59-1.54,1.51-.05-.29-.5-.68-1.12-.69-.56,1.3.83,1.11.87,2.07-.72.19-.57-.06-.41.67-.74-.19-1.36.16-2.19-.43.86-.19.05-.65.1-1.17.59.42.97.13.86-.39-1.16-.07-3.06.99-3.35,1.93.78-.11,1.51,1.41,2.17,1.96-.42.16-1.69.77-1.66.21.77-.17.41-.74.46-1.26-.87-.24-1.71-1.27-1.7-.74.48.39.82.82.7,1.35-.75-.4-.7-.97-1.64-1.32-1.38.58-2.55,2.04-4.15,1.74.62-2.57-1.36-4.05-3.81-3.28-5.2,2.97-12.51,1.18-16.38,7.1-1-.24-1.89.01-2.82.1-2.74,3.29-8.18,3.32-9.31,8.09-.45-.21-.34-.56-.75-.77-.23.37-.46.74-.69,1.11.05,2.55,6.53,1.52,4.55,5.58Z"/>
      <path class="cls-2" d="M279.84,254.6c.55-.4,2.15,1.03.83,1.13,1.43.75.18-1,1.36-.69-.85-.46-2.2-1.77-1.73-2.74-.31.11-.75-.33-.97.14.2.27.35.55.39.85-.67.1-.27-.19-.89-.55-.18.31-.41.43-.63.53,1.46-.03,1.81,1.41,1.64,1.32Z"/>
      <path class="cls-2" d="M277.93,256.18c-.12-.93.7.42,1.3-.11-1.39-.75-2.29-1.07-3.08-.98.88.19.94,1.52,1.78,1.1Z"/>
    </g>
    <g>
      <path class="cls-1" d="M220.72,347.2c1.06.8-1.22.68-.87,1.73-.62.05-.13-1.02-.29-1.44.39.37,1.08.38,1.16-.29Z"/>
      <path class="cls-1" d="M222.17,348.93c-.29,1.12-.99.04-2.02.29.49-.86,1.05-.32,2.02-.29Z"/>
      <path class="cls-1" d="M219.57,355.27c.09-.39.73-.24,1.16-.29.24.23.17.79.57.87-.61.95-.84-.87-1.73-.58Z"/>
      <path class="cls-1" d="M220.14,358.73c-.72-1.14.97-1.38,1.73-1.44.24.33.38.77.29,1.44-.42-1.09-1.34-.75-2.02,0Z"/>
      <path class="cls-1" d="M224.76,379.2c-.08.75-.1,1.45.86,1.16-.24.33-.38.77-.29,1.44-.47-.59-.78-1.34-1.73-1.44.04-.74.42-1.12,1.16-1.16Z"/>
      <path class="cls-1" d="M222.74,381.79c.6-.12.76.2,1.15.29.12.69-.53.63-.29,1.44.83-.3.96-.87.58-1.73.52-.04.61.35,1.15.29-1.2.98.19,2.43-1.15,2.02-.28,0-.22.35-.29.58-.81-.15-.08-1.84-1.44-1.44-.09-.67.05-1.11.29-1.44Z"/>
      <path class="cls-1" d="M229.37,400.24c.11.97-1.28.45-.86,1.72-.23-.15-.47-.3-.87-.29.07-.99.86-1.26,1.73-1.44Z"/>
      <path class="cls-1" d="M225.91,403.41v.86c-.69-.25-.76-.19-2.02-.29.42-.82.76-.32,2.02-.57Z"/>
      <path class="cls-1" d="M513.62,405.72c.47-.08.51.28.87.29-.04.83-.36,1.37-1.44,1.15-.04-.71.46-.89.57-1.44Z"/>
      <path class="cls-1" d="M229.08,410.04c.08.46-.27.49-.29.86.17.42.45.7.86.86-.43.95-.7-.6-1.44-.29.51-.43-.54-1.49.86-1.44Z"/>
      <path class="cls-1" d="M507.28,416.38c.2,1.32-.99,2.25-2.02,1.45-.13-1.28.74-1.57,2.02-1.45Z"/>
      <path class="cls-1" d="M238.59,418.98v.87c-.6.12-.76-.2-1.15-.29.07-.5.5-.66,1.15-.58Z"/>
      <path class="cls-1" d="M234.84,421.86c.97.43.26,1.44,1.15,1.44-.12.83-.61,1.31-1.44,1.44.08-.76-.1-1.24-.86-1.15-.02-.97.67-1.25,1.15-1.73Z"/>
      <path class="cls-1" d="M242.05,433.39v1.15c-1.11.22-1.11-1.38,0-1.15Z"/>
      <path class="cls-1" d="M498.35,433.39c1.11.2,1.02,0,1.73.29-.18.59-.45,1.09-1.44.87.03-.52-.36-.61-.29-1.15Z"/>
      <path class="cls-1" d="M497.77,437.14c1.06.28,1.03,1.66,2.59,1.45,0,.27-.35.22-.57.28-.65.16.35.45-.29.87-.89.02-1.38-.36-2.02-.58.4-.38.28-1.25.29-2.02Z"/>
      <path class="cls-1" d="M251.57,440.89c1.43.2-.07,1.64-.87,1.44-.22-.99,1.17-.37.87-1.44Z"/>
      <path class="cls-1" d="M498.64,440.89c.22.15.47.3.86.29-.08.78-1.21.52-1.44,1.16-.9-.47.59-.91.58-1.44Z"/>
      <path class="cls-1" d="M280.68,473.18c-.09.39-.72.23-1.15.29.66.62,1.97,1.71,1.44,2.59-.72-.87-2.04-1.22-2.59-2.88.56-.58,1.65-.19,2.3,0Z"/>
      <path class="cls-1" d="M293.95,481.54h1.15c.12.6-.2.76-.29,1.15-.42-.25-.91-.43-.87-1.15Z"/>
      <path class="cls-1" d="M295.96,485.57c.33.1.73.51.29.58.09.39.72.24,1.15.29.04.81-.7.83-1.44.86.08-.76-.1-1.24-.86-1.15.07-.41.86-.1.86-.58Z"/>
      <path class="cls-1" d="M306.34,490.76c.04-.64,1.22-.12,1.73-.29.33,1.72-1.1.6-1.44,1.15-1.02-.03.61-.95-.29-.87Z"/>
      <path class="cls-1" d="M309.22,492.21c.49-.11.54.22.58.58,1.23-1.35,5.41.83,3.17,2.31.79-.77-.21-1.01-.29-1.73-1.61.1-3,.42-3.46-1.15Z"/>
      <path class="cls-1" d="M434.92,493.36c.24.62.75.99.58,2.02-2.08,1.36-3.45-2.39-.58-2.02Z"/>
      <path class="cls-1" d="M428.58,495.95h1.44c.13.9-.25,1.29-1.15,1.15.04-.52-.35-.61-.29-1.15Z"/>
      <path class="cls-1" d="M330.56,497.68c.05.25-.11.27-.29.29.05.34.53.25.87.29.06.81-1.25.83.29.86-.56,1.83-2.06.04-3.17.87-.34-.43-.35-1.18-.86-1.44.27-.38,2.35-.15,1.44.86.67.18,1.53-1.51.29-1.44-.92-.4,1.02-.28,1.44-.29Z"/>
      <path class="cls-1" d="M333.44,498.55c.67-.09.32.83.87.86-.26.51-.7.84-.87,1.44-.31-.75-1.25-.86-1.44-1.73.71.04,1.4.06,1.44-.57Z"/>
      <path class="cls-1" d="M342.66,498.55c.34.04.25.52.29.86-.21.23-2,.77-1.73-.29.86.34,1.21.32,1.44-.57Z"/>
      <path class="cls-1" d="M344.97,498.83c.17,1.04.22,1.32,1.45,1.73-.96.76-2.31-.56-2.88-1.15.04-.63.73-.62,1.44-.58Z"/>
      <path class="cls-1" d="M350.45,503.74c-.74-.04-1.12-.42-1.16-1.15.78.2.56-.6.86-.86.61.65-.12,1.02.29,2.02Z"/>
      <path class="cls-1" d="M373.8,502.29c-.23.63-.58,1.15-1.44,1.15-.05.47,1.89.58,1.44-.29.55.12,1.24.11,1.15.87-1.96-.33-1.72,1.54-3.17,1.73-.25-.92.45-.89.58-1.44-1.07.56-1.99-.15-2.88-.57.18-.61,1.77-.27,2.02,0,.6-.08.08-1.27.58-1.44.91.14,1.12-.63,1.73,0Z"/>
      <path class="cls-1" d="M385.91,502.58c.87-.29.51.64.58,1.15-.33-.05-.51.07-.58.29-1.16-.37.08-.59,0-1.44Z"/>
      <path class="cls-1" d="M355.06,502.88c-.05.34-.53.24-.87.28.12.56,1.12.23.87,1.15-1.43.38-1.41-.7-2.6-.57.75-.4,1.25-1.06,2.6-.86Z"/>
      <path class="cls-1" d="M359.39,502.88c1.34.36,3.48,1.22,2.59,2.88-.62-.43.21-.71-.29-1.44-1.28.03-2.15-.34-2.31-1.44Z"/>
      <path class="cls-1" d="M364.29,503.45c.74-.8,1.53,1.1.58,1.44-.8.13.23-1.57-.58-1.44Z"/>
      <path class="cls-1" d="M366.88,503.45c.79.69,1.38.08,2.59.58-.85,1.04-1.5.55-3.17.58-.33-.91.45-.7.58-1.15Z"/>
      <path class="cls-1" d="M379.85,503.74c.04.9-.74.99-1.44,1.15-.35-1.24.83-1.73,1.44-1.15Z"/>
      <path class="cls-1" d="M513.04,304.53c.66-.48,1.08-.75.57-1.73-1-.71-.9.9-1.44-.29.51-.54,1.17-.65,1.44,0-.19-1.06-.4-2.1-.28-3.46-2.41-.77-1.76-3.6-2.02-5.77-.33-2.76-2.68-4.67-2.59-6.92-.46-.6-1.61-.5-2.02-1.15.14-4.56-2.99-5.86-3.17-10.09-1.72-2.98-3.24-6.18-4.61-9.52.19-1.44-.27-2.23-.29-3.46-4.7-5.68-7.71-13.05-13.26-17.87-4.85-6.1-9.73-12.18-17.01-15.86-.55-.79-1.18-1.51-1.73-2.31-4.01-.99-5.67-4.32-9.23-5.76-.17-1.27-1.04-1.85-1.44-2.89-6.05-.77-7.58-6.06-14.42-6.05-1.3-2.35-5.15-2.15-6.63-4.33-1.82-.37-2.3.59-3.75.58-3.97-3.07-8.7-5.81-14.99-5.76-.7-.46-1.27-1.03-1.73-1.73-8.24-1.64-17.25-3.31-26.52-3.74-2.52-1.48-6.58-1.04-9.8-.58-.03-.28-.1-.56-.17-.83-.14,0-.28.02-.42.02-.4,0-.79-.02-1.18-.06-.44.04-.88.06-1.34.06-2.88-.02-5.74-.1-8.57-.14-.1.03-.19.08-.29.11-3.85.93-7.81,1.43-11.75,1.75-1.21.29-2.41.6-3.62.86-2.18.47-4.39.86-6.61,1.07-.02.02-.03.04-.05.06-4.34.86-8.37,2.01-12.69,2.88-18.23,6.08-33.73,14.89-48.43,24.5-.35.61-.8,1.13-1.15,1.73-1.61.31-2.09,1.75-3.75,2.02-.62,1.12-1.36,2.1-2.31,2.88-8.09,3.83-12.39,11.44-19.6,16.14-.15,1-.77,1.54-.86,2.59-2.1.31-2.22,2.59-4.04,3.17-.37,3.76-4.82,3.44-4.9,7.5-4.31,5.4-8.98,10.44-11.24,17.88-2.19,1.56-3.67,3.83-3.75,7.5-2.38,3.19-3.86,7.29-4.9,11.82-1.75.36-1.24,2.13-1.15,3.75-2.9,4.11-3.91,8.57-4.03,13.84-2.6,1.69-1.2,8.07-3.46,9.23,1.34,5.06-.76,7.8,0,12.11-.97.17-1.02,1.28-1.73,1.73.55,1.41-1.06,4.4,1.15,4.04-1.31,1.25-1.53,4.8.29,5.77-.25.26-.83,1.63-.29,1.73.51-1,2.92-.75,3.46-.87-.33-.06-.45-.32-.58-.57,1.52-.41,2.22.39,2.89-1.45-1.16-2.53.59-4.52.29-6.92-.51-.07-1.44.29-1.15-.57.92.22,2.19-.35.57-.29,1.75-1.5.47-3.02.86-5.19.52-2.88,3.63-5.1,2.59-7.78h.86c-.99-1.94.63-4.5,2.31-6.05-2.9-.86.45-4.17,2.31-4.61-3.54.62-1.83-2.96-1.44-4.9,1.16,0,2.22-.08,2.59-.87-.59-.58-.77-.08-1.15.29-.18-1.08-1.09-1.42-1.15-2.6,1.08-.54,1.08-2.05,0-2.59.67-.23,1.64-.92,2.31-.29-.03-.93-1.31-.62-.86-2.02,1.39-.17,2.92.74,3.46,0-.66-.41-1.48-2.35-1.73-3.17,1.35-.21,2.28-1.51,1.44-2.3,1.22-1.14,1.66.03,2.59-.87.21-1.26-.58.23-.58-.58,1.51-1.38,1.05-2.32.58-4.32.44-1.02,1.23.1,1.73-.86-.36-.61-1.09-3.67.29-4.04-.92.96,1.24.45,2.02.58.73-3.01,1.35-5.13-.58-6.34,3.21-2.16,5.37-5.79,4.9-8.94,1.24-.72,2.35-.46,3.75,0-.83-1.02-1.38-4.35.86-3.46-1.02-2.02,2.12-2.47.58-4.32,1.42-1.37,3.52-4.13,5.48-3.17,0-1.62,1.48-2.53.29-3.75,1.04-.84,2.82-.49,3.74-.29.19-1.63,3.29-2.79,1.73-4.33.51-.54.84.35,1.44-.29-.3-1.3,1.07-2.79,2.02-3.75.6.08.07,1.28.86,1.15-.04-1.2-1.36-2.78.87-3.17.27,1.08-1.23,1.65,0,2.02.68-.69,2.16-1.03,3.17-.57,0-1.75,1.38-2.95.86-4.33,1.63.09,1.59-1.48,2.59-2.02.19,1.31,2.16.02,2.02-.86-.75.17-1.04-.12-.86-.87,2.33-.78,3.66-1.08,5.76-1.73-.34-.43-1.2-.34-1.15-1.15,4.77-1.46,6.54-5.6,11.82-5.48,1.07-1.4-.47-1.01,0-2.31,3.23-.07,4.33-4.58,7.21-3.17-.09-2.2,2.79-1.87,4.91-2.88.45.13.24.91,1.15.58,1.42-1.55,2.81-1.3,4.61-2.02.24-1.1-1.39-.34-1.15-1.44.76-.75,2.49-1.18,3.75-.58.42-.34.45-1.09.86-1.44,4.02-.02,4.91-1.92,7.78-2.02.05-.43-.1-1.06.29-1.15,7.44-2.43,15.29-3.11,21.04-7.5h2.59c.98,6.1,3.87,11.31,10.38,10.38,6.45-.92,9.16-7.67,12.39-11.82,6.88,0,13.23,1.21,19.61.87.96,1.37,4.93.71,6.92,1.15,5.22,1.17,11.06,5.09,16.72,5.48,2.75,3.11,7.39,4.33,11.82,5.77-.21.79.57.58.57,1.15,5.23,1.79,10.37,3.66,14.13,6.92,3.13.17,4.54,1,6.34,2.88,1.38-.22,1.86.45,3.17.29,1.42,1.85,4.17,2.37,5.19,4.61,4.17,2.17,8.66,4.04,12.11,6.92h2.02c.64,1.77,2.59,2.22,3.17,4.04,9.69,3.47,13.26,13.08,18.74,20.75.66.21,1.47.26,2.02.58-.06.93.51,1.22.29,2.31,5.08,7.13,9.96,14.44,13.55,23.06.03-.35.09-.68.58-.58-.36,3.19,1.41,6.49,4.33,8.65-.5-.01-.74.22-.87.58,2.09.44.53,1.13,1.44,2.59-.43-.46-1.21,0-1.44.58.76.78,1.75,1.33,2.02,2.59,1.26.11,1.31-.99,1.73-1.73.62,1.08-.37,1.06-.58,2.02.23,1,1.48-.18,2.02.87.41-1.33.31-2.17,1.15-3.46-.52-.64-.77-1.53-1.44-2.02ZM219.85,348.93c-.62.05-.13-1.02-.29-1.44.39.37,1.08.38,1.16-.29,1.06.8-1.22.68-.87,1.73ZM222.17,348.93c-.29,1.12-.99.04-2.02.29.49-.86,1.05-.32,2.02-.29Z"/>
      <path class="cls-1" d="M220.43,351.52c.49-1.01.63.67.87.87.77,0,.62-.91,1.44-.87.68,2.2-.57,6.09.58,6.92.09.76-.4.95-1.15.87.04.53.98.17,1.15.58-.18,1.91-1.04,4.29.58,6.05.06,1.58-.87,1.73-.29,3.17-.38-.36-1.06-.36-1.44,0,.03.54.19.97.57,1.16.13-.39.14-.76,1.44-.58.12.98-.86.87-1.15,1.44.2.39.77-.14,1.44.29.2,1.16-.28,1.64-.29,2.6h-1.44c.63.23.64,1.09,1.44,1.15-.53.43-.88,1.04-.86,2.02-.64.89.17-2.07-.86-1.73.05-.34.53-.25.86-.29-.95-.6-1.32-1.15-2.88-.87-.24-.66-.47-3.22-1.44-2.88-.12-1.03,1.2-3.32,0-4.9-.57,0-.37.78-1.16.57.27-2.17-.11-3.64-1.15-4.32,1.07-1.39.55-2.61,2.6-2.88-.49-.47-.3-1.62-1.15-1.73.13-.35.37-.59.87-.57-.12-.55-.82-.52-.58-1.45-.71.04-1.39.04-1.73-.29.07-1.81-.82-1.73-.29-3.46.86.2,1.77.35,2.02,1.15.1.49-.23.54-.58.57.21.27.53.44.86.58.33-.05.17-.29,0-.29.12-.65,1.53-.23,1.73,0,.66-.89-.87-1.15.87-1.44-.34-.43-.36-1.18-.87-1.44ZM221.3,355.85c-.4-.08-.33-.63-.57-.87-.43.05-1.07-.1-1.16.29.89-.29,1.12,1.53,1.73.58ZM222.17,358.73c.09-.67-.05-1.11-.29-1.44-.76.06-2.45.3-1.73,1.44.69-.75,1.6-1.09,2.02,0Z"/>
      <path class="cls-1" d="M223.6,377.75c.89-.39-.67.8-.57,1.44-.84.84.46-1.26-.29-1.15.03-1.02.95.61.86-.29Z"/>
      <path class="cls-1" d="M515.93,378.33c-.45,1.28-1.78,3.87-.29,4.04-.26.5-1.01.74-1.44.29.04.33-.06.51-.29.58,1.38.63.38,1.66,2.02,1.15-1.54.34-.51,2.65-2.02,2.02,0,.89,1.73,1.86,0,2.02v-1.44c-.65-.21-2.25.52-2.01-.58.68,0,.85.5,1.72.29-3.04-2.77,2.85-5.2.29-7.2.72-.33,1.3-.82,2.02-1.15Z"/>
      <path class="cls-1" d="M225.91,398.51c-.52-2.44,1.79-2.34,3.46-3.46.28.87.77,1.54,1.15,2.31-1.19-.62-3.03.55-4.61,1.15Z"/>
      <path class="cls-1" d="M225.62,401.97c.39-.09,1.3-.61,2.02-1.15.17-.94-.19-1.34-.29-2.02.52.08.59-.27.29-.29.44-.6,1.79.3,1.73,1.15.29-.19.3-.67.87-.57.6.63.23,1.92-.29,2.3.58.68,2.41,2.83.29,2.88.04.54.19.96.58,1.15.33-.18-.36-1.25,1.15-.87.12-.7-.53-.62-.29-1.44,1.63.38,1.12,2.91,2.88,3.17-.31,5.27,3.64,8.62,4.62,13.55-.47-.08-.5.27-.87.29.5.36.75.97,1.73.87.35,1.27.84,2.29.86,3.17-.43.87-.86-.64-1.15-.86-.23.05-.28.29-.57.29,1.02,1.01.39,1.9.86,3.46-.67.09-1.11-.05-1.45-.29-.54.55.17.52,0,1.44-1.57.13-1.09.59-2.88.29-.23-1.39-.32-5.07,2.31-4.04.09,1.18-.6.15-1.15.29.19.97,1.23,1.08,1.73,1.73.23-.05.29-.29.58-.29-1.01-1.31-.28-.99-.87-2.88.6.12.77-.2,1.15-.29,0-1.34-1.62-1.06-2.02-2.02-.86.19.28.62,0,1.15-.46-.6-1.44-.67-2.6-.58.19-.63-.82-.92.29-.86-1.95-.3-2.22-3.37-2.31-4.61-1.02.23-.74,1.76-2.02,1.73-.5-.37-.79-.95-.87-1.73.9.03.82-.91,2.02-.57.14-.91-.52-1.02-.29-2.02.52-.04.61.35,1.15.28-.4-.71-.99-.51-1.73-.28.58-1.06-.02-1.15-.86-1.44.31-2.9,1.03-5.54-2.02-6.05-.12,1.27,1.03,1.27,1.15,2.31-1.11-.76-2.02.83-1.15,1.44-1.07-.37-1.76-1.12-2.31-2.01.95-.02.5-1.43,1.73-1.16-.4-1.04.05-2.93-1.44-2.88.89-.69.46-1.52-.58-1.74ZM237.44,419.55c.39.09.55.41,1.15.29v-.87c-.65-.08-1.08.07-1.15.58ZM227.64,401.68c.4-.01.64.14.87.29-.41-1.27.98-.75.86-1.72-.87.18-1.67.45-1.73,1.44Z"/>
      <path class="cls-1" d="M249.26,437.72c1.23-1.5,2.12,2.96,4.03,3.46.09.67-.83.32-.86.87.45,1.05.43-.67,1.16-.29,1.93,3.48,4.47,5.72,5.77,9.22,1.05-.19,1.53.2,2.02.58-.72.62.58,1.27,1.44,1.73-1.01,1.87,1.53,2.44,1.73,4.04,1.38-.89.63,1.47,2.02.58-.17,1.01,1.36.95.57,1.73.23.25,1.96-.05,2.02,1.15h-1.15c.29.55,1.76.55.87,1.44.33-.05.51.06.57.29.42-1.04,1.9-.36,2.02.58-.36-.32-.59-.25-.58.29.46.47,1.08-.13,1.73.58-.54.99-.54.73,0,1.73-.26.22-.65.31-1.15.29.02,1.33,1.12,1.57,2.59,1.44-.02-.25.64-.69.29-.86.07-.75.5.39,1.16,0-.07.41-.86.1-.87.58.19.86.62-.28,1.15,0-.09.68-1,.54-.86,1.44.67-.1,1.24-.29,1.44-.86,1.41,1.13,1.53,2.01,2.88,2.88-.28.13-1.41.48-1.73-.29-.88.35.42,1.1-.29,1.44-.5-.43-1.35.41-1.73-.57-.62-.05-.13,1.03-.29,1.44-.99.05.03-.97-1.15-1.15,0-.28.35-.23.58-.29-.37-1.25-2.51-1.99-2.02-3.17-.89-.22-.35.99-1.44.57v-1.73c-1.56,1.12-1.95-.8-2.6.29-.76-.3-.94-1.17-.86-2.31-.37.4-1.25.29-2.02.29.67-.54,1.18-1.24.58-2.31-.51.17-1.7-.35-1.73.29-.59-.18-.08-1.45-1.15-1.16.41-.36.02-1.52,1.15-1.15-.05-.81.25-1.98-.57-2.02.24-.84.93.18,1.44,0-.78-1.8-2.24-1.19-3.75-.57-.08-.47.27-.5.29-.87-1.33.51-2.69-1.04-4.03-.58.84-2.31-1.71-2.87-3.17-3.75-.08-1.43,1.15-1.54,1.73-2.3-1.04-.27-1.16-1.78-.86-2.59-.58,1.94-3.87.46-2.88,2.88-.82-.14-.41-1.51-1.73-1.15.29-.38.29-1.06.58-1.44-.2-.98-.96,1.27-1.15.29-.58-.6.12-.58.57-.87-.24-1.19-1.52-1.36-2.6-1.73.87-.5-.41-1.78-.86-.86-.7-.26.66-.85.29-1.73-1.14.49-.88.49-2.02,0,.07-.8.85-.88,1.44-1.15-.9-1.17-.64-1.77-1.44-2.88-1.25.4.4,1.06,0,2.31-.74-.03-.3-1.24-1.44-.87.02-.46-.14-1.1.29-1.15-.52-.99-1.4.04-1.73-.87-.33.05-.24.53-.29.87-.26-.19-.52-.36-.58,0-1.07-1.31-.38-4.67-2.01-4.62-.18-1.74.14-2.39-.58-3.75-.43.8-1.17-.5-1.44.29-.64-.06-.4-2.46-.87-1.73-.61-.35.56-1.34,1.15-1.44.94.01,1.1.82,2.31.57,0-.28-.35-.22-.58-.29.13-1.91.82-2.14,0-3.75.55-.12,1.24-.11,1.15-.87,1.16,1.72,3.15,2.62,3.46,5.19.12.43.37-.12.87,0v1.73c1.64.39,3.83,3.32,3.17,6.05.35-.13.59-.37.58-.87.84.24-.17.93,0,1.44ZM242.05,434.55v-1.15c-1.11-.23-1.11,1.38,0,1.15ZM250.7,442.33c.8.2,2.3-1.24.87-1.44.31,1.08-1.08.46-.87,1.44ZM255.6,445.22c-.95-.02-.69-1.23-1.73-1.15-.09.39-.41.55-.29,1.15,1.2-1.08,1.4,1.44,2.02,0ZM270.59,465.4c.02-1.29-.56-1.44,0-2.6-.88-.45-.49,1.77-1.15.58.16,0,.32-.23,0-.29-.8.82-.69,2.62,1.15,2.31ZM275.5,470.58c.12-.55.82-.53.58-1.44-.39-.03-1.59-.54-.87,0,1.05.19-.67,1.35.29,1.44Z"/>
      <path class="cls-1" d="M224.76,405.14c.92-.08,1.05,1.27.57,1.73-.06-.42-.52-.64-.57-1.73Z"/>
      <path class="cls-1" d="M253.59,445.22c-.12-.6.2-.77.29-1.15,1.04-.08.78,1.14,1.73,1.15-.62,1.44-.82-1.08-2.02,0Z"/>
      <path class="cls-1" d="M269.44,463.09c.32.05.16.29,0,.29.66,1.19.27-1.03,1.15-.58-.56,1.16.02,1.31,0,2.6-1.85.31-1.95-1.49-1.15-2.31Z"/>
      <path class="cls-1" d="M275.21,469.14c-.72-.54.48-.03.87,0,.25.92-.46.9-.58,1.44-.96-.09.75-1.26-.29-1.44Z"/>
      <path class="cls-1" d="M455.1,475.49c.41.52-.89,1.78-2.02,1.72.21-1.04,1.6-.9,2.02-1.72Z"/>
      <path class="cls-1" d="M292.22,482.41c.32.54,1.12.62,1.44,1.15.32-.94,2.12-.57,2.88-.28v1.15c-2.85,1.19-5.33-.62-6.35-2.88,1.49,0,1.33-.56,2.88-.87.06.49-.49.75,0,.87-.43.15-.45.18-.86.87Z"/>
      <path class="cls-1" d="M304.9,488.75c.43.68.44,1.06,1.44.57-.69,1.14-1.96,1.7-3.17,2.31-.2-.95-1.33-.97-1.44-2.01-.81-.24-.75.4-1.44.29.33-.85.17-1.07-.58-1.44-.09-.67.83-.32.86-.86-.78-1.04-1.12.78-2.02.58.7-2.53-1.37-2.28-2.59-2.88.54-.61,1.66-.8,1.73.29.76.09.23-1.12,1.15-.87.2,2.43,1.53,2.27,4.04,2.02-.43.67-.71.44-1.44.29,0,1.48,1.76.13,2.88.87-.5.59-.54,2.46.87,2.02-.23-.26-.31-.65-.29-1.15ZM302.59,489.9v.57c.34.04.66.51.87,0-.59-.3.51-1.71-.58-2.01-.4.82.89,1.57-.29,1.44Z"/>
      <path class="cls-1" d="M302.88,488.46c1.09.31-.01,1.71.58,2.01-.21.51-.53.04-.87,0v-.57c1.18.13-.12-.62.29-1.44Z"/>
      <path class="cls-1" d="M317.01,495.38c-.89.47-1.12.25-1.73.58-.55-.38.66-.95,0-1.73-.29.19-.3.66-.86.58-.6-1.07.41-.75.29-2.02.86.65,1.46,2.21,2.88,1.44.44.15.02.3-.29.29-.34.05-.24.53-.29.87Z"/>
      <path class="cls-1" d="M317.87,494.51c.62.24.99.75,2.02.58-.21.88.49.84.29,1.72h-1.16c.19-.57,1-1.23,0-1.44.21,1.2-1.31.85-1.15-.87Z"/>
      <path class="cls-1" d="M421.66,493.64c.36-.39.84-.16,1.44.29.05.62-1.02.13-1.44.29-.05-.25.11-.27.29-.29.05-.25-.11-.27-.29-.29Z"/>
      <path class="cls-1" d="M322.49,495.38c0-.81.79.69.58-.58,1.15.2.02,1.35.58,1.73,1.02-.1.71-.79,1.73-.29-.53.55-.53.22-.29,1.15.72-.03.89-.54,1.44,0-.72,1.77-5.6,1.57-5.48-1.73h.86c.58.59-.13.56-.29,1.15.89.22.35-.99,1.44-.57.01-.5-.22-.75-.58-.87Z"/>
      <path class="cls-1" d="M338.06,499.41c.43.43.87.86,1.44,1.15-.52.25-.79.75-1.44.87.06-1.05.39-1.1,0-2.02Z"/>
      <path class="cls-1" d="M355.06,501.43c-.82-.24-.75.41-1.44.29-.19-2.12,1.79.29,2.02-.58.5.26,1,.54.86,1.44.6.25,1.3-.75.58-.86.95-1.12,0,2.08,1.15,1.73.37.52-1.29-.22-1.44.86-1.1-.57-.69-.99-.86-2.59-.9-.15-1.4.68-.87-.29Z"/>
      <path class="cls-1" d="M342.38,502.58c-1.02-.15-1.29-.84-2.31-.29.13-1.77,2.34.29,2.59-1.15,1.21.16,2.76.63,3.46,2.02-1.54-.03-.79.57-1.16,1.44-.33.93-.33-.77-.29-1.15-.51.07-.66.5-.58,1.15-.26-.79-.7-1.42-.86-2.3.86.1.54,1.38,2.01.86-.27-1.27-2.27-2.03-2.88-.57Z"/>
      <path class="cls-1" d="M350.45,502.88c.2-.72.76.53,1.44.28-.1.38-.51.46-.58.87-.79.12-.27-1.07-.86-1.15Z"/>
      <path class="cls-1" d="M375.82,502.01c.34.43.83.7.86,1.44.49.1.54-.23.58-.57.42.25.91.43.86,1.15-.28,0-.22-.35-.29-.58-.8.17-1.2.71-2.02.86-.07-1.2.47-1.36,0-2.3Z"/>
      <path class="cls-1" d="M382.74,504.02c-.32-.07-.2-.57-.58-.58.97-1.04,1.25,1.04,2.31.86-.54,1.16-1.32-1.31-1.73-.29Z"/>
      <path class="cls-1" d="M511.32,387.27c1.21-.25,1.36.56,2.3.57-.56.85.18,2.38.29,3.46-.46.08-.49-.27-.87-.29,1.25,2.13-1.02,2.76-1.15,4.61-.34-.04-.24-.53-.29-.86-.63-.05-.13,1.02-.29,1.44.09.68,1.37.17,1.16,1.15-1.14-.56,0,2.08-.58,2.59-.31-.07-.2-.57-.58-.57-.24.05-.28.29-.57.29.27.93.22,4.67-1.15,5.19.11,1.87-.16,3.4-1.15,5.19,1.72.38,3.11,1.11,2.88,3.46-1.22.98-1.87,2.55-2.59,4.04-.76-.76-.89.58-1.73.58.59,2.14-.85,3.93-2.02,5.19.21.27.52.44.86.57-.24.33-.38.77-.29,1.45-1.61-.36-1.78.71-2.31,1.44-.69.12-.63-.53-1.44-.29-.82,1.15-1.02,2.61-.57,4.33-1.17.59-2.41.29-4.04.86,1.72.73-.96,2.43-2.02,2.02.2.89.2.56,0,1.45-1,.44-2.32.56-2.88,1.44-.77-.61.71-1.38.57-2.31.32.07.19.57.57.57.7-.26-.65-.85-.29-1.73,1.08-.27,1.05-1.64,2.59-1.44-.19-1.35.46-1.85.58-2.88h1.16c.09-.42.21-1.93.57-2.88h1.15c-.52-2.01.33-1.79,1.15-2.88-1.34-3.05,1.85-5.32,3.75-6.92-.6-2.17,2.11-2.73.87-5.76.49-.01.74.21.86.58.32-.55.72-1.01.87-1.73-.25-.43-.72-.62-1.44-.58-.06-1.69,2.31-.96,2.59-2.3-.28-.39-.47-.87-.86-1.16-.05-.62,1.02-.13,1.44-.29-.58-2,.72-2.19.29-4.04.65.08,1.08-.07,1.15-.57-.4-.65-.26-1.86-1.44-1.73,1.32-2.34,2.02-3.89,2.6-7.2.23.15.46.3.86.29-.56-1.41-.39-2.25-.58-4.32ZM505.26,417.83c1.03.81,2.22-.12,2.02-1.45-1.28-.12-2.15.17-2.02,1.45Z"/>
      <path class="cls-1" d="M284.43,476.93c.23-.06.29-.29.58-.29-.03-1.14-1.25-.88-.58-2.02,1.38-.04,1.49,2.18.58,2.3.1,1.36,1.77-.64,1.44,1.15.56-.12.23-1.12,1.15-.87-.23,1.2,1.78.15,2.02.87-1.05.6-.56.96-.86,2.3.28.81.77-.42,1.15.29-.04.83.16,1.89-.29,2.31-.58-1.59-.7.04-1.73.29.21-.66.26-1.48.58-2.02-1.18-1.17-5.33-.77-4.32-3.17-2.11-1.37-2.19-2.49-2.88-4.32,1.74-.92,2.51,2.37,3.17,3.17Z"/>
    </g>
    <g>
      <path class="cls-4" d="M304.96,187.73c.51.68.94,1.47,1.37,2.25-.61.04-.66.52-1.32.55-1.05-.83.08-1.74-.04-2.79Z"/>
      <path class="cls-4" d="M312.99,187.61c.08,1.11-2.11,1.11-2.11-.05.8-.12,1.09.45,2.11.05Z"/>
      <path class="cls-4" d="M291.45,195.98c.56-.08,1.14-.16,1.7-.24-.17.38-.73.46-.54,1.12-.73.17-1.12-.13-1.16-.88Z"/>
      <path class="cls-4" d="M266.17,212.58c.18.69-1.8,2.14-2,.63.34-.45,1.15-.56,2-.63Z"/>
      <path class="cls-4" d="M257.51,220.48c1.46.03.46,2.11-.55,1.13.06-.47.53-.62.55-1.13Z"/>
      <path class="cls-4" d="M246.8,231.13c-.71.95-1.04-.7-2.46,0-.05-1.14,2.34-1.06,2.46,0Z"/>
      <path class="cls-4" d="M489.18,260.94c-.14.29-.27.61-.2,1.07-1.34.16-2.53.11-2.94-.97.76-.91,2.4-.49,3.13-.1Z"/>
      <path class="cls-4" d="M464.44,266.6c1.26-.45,1.7.18,2.8-.05.11,1.04-2.56,1-2.8.05Z"/>
      <path class="cls-4" d="M474.68,267.23c-2.97.82-4.68,0-6.71-.43,1.76-.61,6.54-3.03,6.71.43Z"/>
      <path class="cls-4" d="M511.98,263.59c.88-.22,1.49-.09,1.52.84-.26.31-.71.48-1.32.54-.07-.46-.14-.92-.2-1.38Z"/>
      <path class="cls-4" d="M498.8,266.89c2.14-.06,1.16,3.39-.58,3.24-.2-1.36.46-2.1.58-3.24Z"/>
      <path class="cls-4" d="M441.48,277.27c-.57,1.32-3.33.98-5.05,1.43.94-1.03,3.12-1.14,5.05-1.43Z"/>
      <path class="cls-4" d="M458.78,280.72c.76,1.19-1.92,1.05-3.33,1.18.22-1.05,3.1-.12,3.33-1.18Z"/>
      <path class="cls-4" d="M497.34,276.21c.07.46.14.91.2,1.37-.46.07-.92.14-1.38.2.33-.56.08-1.57,1.17-1.57Z"/>
      <path class="cls-4" d="M499.96,291.94c1.76-.4,1.34,2.75,1.23,3.67-.76-.74-1.06-2.13-1.23-3.67Z"/>
      <path class="cls-4" d="M501.79,299.73c.69.2,1.13,1.37.64,2.01-1.16-.04-.69-1.23-.64-2.01Z"/>
      <path class="cls-4" d="M514.38,469.48c.88,3.1,1.72,4.18.99,6.86-2.65.46-5.74.71-8.39.16-6.85,4.26-11.03,10.52-17.82,14.82-2.27,2.79-2.52,7.41,1.24,8.57-8.16,2.72-12.64,9.68-22.33,10.23-1.45.55-.46,2.92-.78,4.32-12.9,10.2-32.84,18.08-51.97,20.8-1.73-1.08-2.8-3.08-4.76-3.87-4.34,1.03-7.14,0-9.95-1.01-11.81,1.57-20.22,1.6-30.42,2.64-.87-.77-2.02-1.14-3.05-1.67-6.46,2.48-14.3,1.27-19.36-.71-13.89-.38-24.54-5.09-37.11-7.25-1.25-1.73-3.81-3.63-5.88-4.39-1.36-.51-3.02-.35-4.61-.39-2.52-2.22-5.42-3.1-8.72-4.7-2.91-1.4-5.32-4.05-8.14-5.47-1.15-.59-2.86-.4-4.03-1.17-.87-.56-1.22-1.85-2.11-2.5-1.2-.88-2.85-.84-4.08-1.51-3.87-2.17-7.27-5.52-11.77-6.35-2.5-5.52-6.93-6.92-10.99-10.68-3.2-2.95-5.13-7.14-9.66-8.75-4.77-7.13-12.51-10.28-16.06-19.04-5.08-4.53-8.89-10.75-13.21-16.3-.12-.8-.23-1.6-.35-2.41-5.01-3.39-5.92-12.26-9.81-17.13-3.27-8.99-6.94-17.2-9.4-26.3-1.66-6.16-1.95-12.33-5.51-16.37-.26-1.3.99-1.5,1.02-2.59-.4-7.99-3.01-14.51-.52-20.59-1.87-4-.14-8.42-.07-12.59.04-1.66-.69-3.14-.69-4.8,0-1.2.81-2.55.84-3.97.07-3.81.9-5.72,1.21-8.58.77-7.44.3-15.02,3.26-21.13.35-6.56,1.7-12.39,4.92-16.81,2.17-15.41,11.2-25.69,15.67-39.37,4.56-2.02,4.65-7.31,7.19-10.85,1.14-1.57,3.11-2.31,4.36-3.77,1.22-1.43,1.46-3.39,2.45-4.91,2.52-3.86,7.22-6.22,8.6-10.7,7.94-5.38,11.92-13.73,20.41-18.69,10.33-9.42,22.17-17.69,37.21-23.58,3.47-2.98,9.17-3.99,15.18-6.4,5.55-2.22,11.53-4.82,18.76-5.85,7.19-1.03,14.23-4.39,20.58-2.98,9.54-3.36,19.35-.16,28.77-2.05,2.05-.42,3.87-1.61,6.07-1.58,3.41.05,7.02,2.66,11.38,3.61,1.82.4,4-.14,5.98.19,3.39.56,6.53,2.5,9.51,2.82,1.94.23,3.85-.44,5.58-.1,1.48.29,2.92,1.66,4.52,2.15,4.06,1.28,7.5.42,10.24,3.07,3.24-1.03,4.88,1.54,7.3,2.09,1.43.33,3.09-.25,4.21.1,2.08.64,3.41,2.87,5.45,3.77,2.94,1.28,5.97,1.44,9.07,2.19,4.23,2.52,7.74,6.01,13.24,6.85,2.58,3.18,5.88,5.17,9.48,7.39,2.24,1.38,4.53,3.58,7.02,4.94.59.33,1.57,0,2.15.39,2.73,1.86,4.17,5.36,7.9,6.21.7,4.09,5.12,5.1,7.37,7.34,2.21,2.22,3.8,5.58,6.97,7.05.74,3.93,3.72,4.85,5.88,6.85,1.82,4.06,6.22,6.51,8.2,10.73.46.95.17,2.12.79,3.03,2.12,3.09,7.08,4.69,6.59,9.21.08,1.38,1.71.7,2.01,1.82-.06,4.21,3.01,6.51,5.25,9.75,1.46,2.11,2.25,4.52,3.44,6.85,1.95,3.79,3.48,5.31,4.28,10.24,1.16,7.17,6.74,15.11,7.97,23.71.33,2.28.44,6.17,1.29,8.92.49,1.6,1.8,2.92,2.07,4.6.17,1.05-.67,1.75-.64,2.89.02.85,1.02,1.95,1.14,2.99.31,2.83,1.14,7.99,1.33,11.71.35,6.96.43,15.88,1.66,23.57-2.74,15.68-4.6,30.74-7.23,46.91-2.48,6.62-4.58,13.51-6.5,20.54-4.26,6.71-6.51,14.92-11.68,20.95-5.43.71-10.97,7.25-12.72,11.29-.32.73.27,1.68,0,2.45-.75,2.08-2.89,4.37-4.02,6.17-1.41,2.31-2.4,4.36-3.65,6.13ZM219.54,263.07c-.1,1.23.69,1.25.69,2.36-.46.07-.91.13-1.38.19,0,1.11,1.17.62.98,1.96-1.81,1.61-2.3,4.19-4.45,5.55-.04,1.12.8.96.25,1.71-3.41,7.34-7.1,14.48-9.72,22.41-4,3.64-7.84,7.39-6.6,14.96-.72.68-1.33,1.45-2.14,2.06-1.39,12.64-3.29,25.78-1.71,39.11.33,2.73-.04,5.61.16,8.38.26,3.41,2.72,11.13,2.86,12.55.11,1.16-.67,2.35-.53,3.58.24,2.18,1.69,4.02,2.31,6.31,2.07,7.58,2.3,15.34,5.52,21.27.32,1.15.14,1.93.06,2.79,1.57,1.96,3.88,4.72,3.58,7.88,1.75,5.24,4.73,7.9,6.54,13.77,2.88,5.3,6.57,11.41,9.97,15.72,2.41,3.07,4.08,6.86,6.33,9.94,6.22,8.48,13.48,16.74,21.5,22.8,1.28.97,2.12,2.66,3.34,3.72,9.44,8.18,21.17,15.02,31.44,21.38,2.43,1.5,5.16,2.22,7.85,3.42,3.65,1.62,7.39,3.18,11.17,4.69,4.32,1.71,9.05,4.08,13.05,5.47,2.58.9,5.45.97,7.93,1.66,3.59.99,6.5,2.32,9.86,2.79,5.72.77,11.64,1.56,17.56,2.71,16.13.46,33.8.42,48.95-2.87.85.23,1.76.37,2.84.3,7.84-2.94,18.05-6.08,24.83-9.89,8.8-1.98,16.18-5.04,21.75-9.44,3.22-6.05,12.1-6.38,18.06-10.66.77-.58-.55-1.22.15-1.42,4.23-.71,6.62-2.8,8.32-5.4,6.28-2.24,7.09-8.57,13.51-10.71,1.32-2.88,4.58-4.33,6.76-6.57-.43-.93.35-.96.09-1.76,8.89-8.34,15.57-18.35,21.76-28.71,1.77-1.23,3.01-2.84,4.66-4.17-.21-1.49.78-2.05.15-3.86,2.22-4.16,3.93-8.69,7.37-11.93,3.52-6.15,4.69-14.04,7.53-20.69.53-10.74,6.21-19.2,5.11-30.15,1.96-7.56,1.58-15.17,2.21-23.42.01-1.11-1.17-.63-.97-1.96.38-3.07,1.02-7.33-.85-10.73,1.92-4.42-1.07-9.17-1.58-13.43-.85-6.89-1.32-13.36-3.52-19.45-1.96-5.51-4.56-11.41-6.88-16.16-3.09-6.32-5.84-14.05-12.19-16.45-4.84.08-6.94-3.53-12-3.17-1.13-2.17-3.58-2.58-6.32-2.59-2.43,3.32-9.5,2.28-11.71,6.23-.07-2.89-2.66-2.44-3.73-4.01.48-3.71,2.59-6.67,7.64-5.3,1.86-6.48-2.53-12.93,1.99-17.8-.16-1.42-.91-2.06-.89-3.72.34-1.17.88-2.2.49-3.93-5.4-7.45-19.07-11.21-16.01-23.6-.74-2.52-3.13-2.13-4.96-2.78-1.58-.57-2.59-2.46-3.97-3.27-1.8-1.05-3.67-1.17-5.24-2.39-3.93-3.05-7.37-6.3-11.44-8.86-15.45-6.83-31.26-12.68-48.53-16.11-2.72,1.55-3.81,6.83-7.99,5.36,0,.68.56.61.84.93-1.14.27-1.29,1.28-2.19,1.72-.72,0-1.02-.56-1.54-.83.02.4.2.96-.18,1.07-3.74.08-6.07-1.71-10.59-.57-.23-1.89-2.5-1.03-3.14-2.35-.81-4.92-1.89-7.77-5.26-9.75-4.61.04-11.29-.02-15.43-.22-5.65-.27-10.03,1.37-15.44,2.23-3.25.51-6.63-.5-9.45-.04-5.29.86-5.94,5.34-8.08,9.56-2.78-.22-5.59.89-9.07,2.71.64.08-.09.38-.24.73,1.67-.86,1.51.72,2.56.69,1.32-.24,1.59-1.26,2.14-2.06,1.72.38,4.31-.72,5.84,1.61-4.74-1.94-5.88,1.83-10.24,1.83-.87-1.17,1.98-1.75.08-1.76-.95.71-1.48,1.75-1.65,3.03-1.61,0-3.82,2.98-4.17.26,1.29.66,1.88-.77,4.08-.94-.71-1.41-4-.5-4.37-1.12.85-2.16,4.15-.76,5.09-1.08.29-.71.69-1.33.72-2.21-3.4.94-5.57,2.16-8.17,1.53-.65.34.36,1.9-.39,2.16-1.22-.21-.87-.29-.94-1.61-.77.22-1.32.13-1.76-.1.52,1.23,1.17,2.25,1.87,3.24-1.79-.31-4.23.54-5.49.79,1.98-.51-.02.82.24,1.71,1.08-.11.83-1.22,2.3-1.04-.14,1.01.61.82.59,1.67-1.48.18-2.63-.33-3.39.84,1.64,1.97-2.86.83-5.05,1.43-1.92.53-2.72,3.26-4.3,1.67-.2-.97,2.3.09,1.56-1.27-1.58.86-2.66-1.31-3.08.44.43.11.83.25,1.12.54-2.93.72-5.86.93-7.5,1.43-.14,1.01.62.82.6,1.67-1.17-1.01-1.58,1.09-2.41.34,0-.5.49-.66.53-1.13-.96-.47-1.14.57-1.76-.1,1.06-.39,0-1.58.44-1.81,1.45.13.33,1.16,1.91,1.12.05-.28.24-.44.64-.44.02-.85-.73-.65-.59-1.67-1.07.45-3.04,0-3.09.44,0,1.06-5.74,2.24-4.55,4.86,1.06-.85,3.11.45,4.02,1.16,2.65-.47,5.16-2.66,7.73-2.16-.53,1.56-2.97,1.06-3.96,1.62,0,.69.56.61.83.94-.91.13-1.82.27-2.74.4-.03-.92.56-1.23-.83-.94-.93.13,1.18,1.6.25,1.72-2.21-.64-4.2.78-5.45-1.32,1.15.19,1.61,1.29,2.85.29-.77-1.7-6.01-.73-5.23.06.3-1.53,1.43,1.25.53,1.32-.56.08-.33-.92-.83-.93-.21.97-.3,2.02-1.82,2.02.42-.81.52-1.86,1.43-2.31-1.95-.72-1.4,2.75-3.83,2.65.4,1.01-.17,1.3-.05,2.11,1.36.27,2.23-1.36,3.09-.45-1.2.22-1.39,1.21-2.59,1.42-.97.09-.67-1.56-1.92-1.12.29,1.38-.02.79-.93.84-.14,1.13.49,1.26.93,1.62-1.97.32.42.68-.83,1.52-1.3-1.42-.9-3.36-3.34-3.72-.53.95.73,1.33-.05,2.11-2.18-.79-3.06,1.15-4.64,1.72.12,1.02,2.31,1.37.68,2.35-.81-.26-.44-2.13-1.95-1.46-1.05.94-.65,2.97-1.12,4.36-.55.76-1.36.44-1.77-.09.17.73-.12,1.13-.88,1.17-.21,1.7,1.52-1.02,1.52.83-1.24.4-3.48.06-4.06.94,1.45.73,1.84.33,2.41-.35.04.47.27.73.49.98-.53.53-.73,1.29-1.92,1.32-.06-.46-.13-.91-.19-1.37-1.09-.11-.53,1.03-1.62.93-.81.88,1.98,1.75,1.09,2.64-.37-.94-2.67-.08-1.22-1.22-1.03,1.46-2.73-.49-4.41.98.11,1.22,1.35.91,1.96,1.47.12-.51-.66-1.71.1-1.77.75.24.94,1.22,1.03,2.31.64.12,1.28-1.2,1.72-.24-1.14-.23-.76.66-1.28.88-.37-.32-1.28.07-1.17-.88-1.42.35-1.65,1.9-3.33,1.18-.18,1.33.88,1.01,1.28,1.57-.83.66-3.83.47-1.58,1.28-.34.05-.68.1-1.03.15.84.71,1.22,2.09-.33,2.5-.18-.58.82-2-.6-1.67.52,2.09-.12,4.7-2.65,3.54-.09,2.2-.39,3.87-2.78,4.95-.26-.46,1.22-1.03.2-1.07-4.26.45-5.91,2.91-7.55,5.99-2.9.16-3.5,4.65-.97,5.4-.9.35-.65,1.56-1.85,1.66-.62-.75-1.41.17-2.85-.29.47,1.79-.53,2.46-1.28,3.33.41,0,.97-.2,1.08.2-1.24.6-.37,1.87-.69,2.56-.74-2.21-1.86.66-2.89-.64-.75,1.63-.7,3.59-.38,4.61-2.32-.1-3.3,3.44-5.29,4.61ZM305,190.52c.66-.02.72-.5,1.32-.55-.43-.78-.86-1.57-1.37-2.25.12,1.05-1,1.96.04,2.79ZM299.02,190.33c.09,2.17,1.87,2.59,3,1.31-1.83-.53,1.96-.89.54-1.12-1.47.74-2.57.67-3.54-.19ZM244.34,231.14c1.42-.71,1.76.94,2.46,0-.12-1.05-2.51-1.13-2.46,0Z"/>
      <path class="cls-4" d="M302.56,190.52c1.42.23-2.37.59-.54,1.12-1.12,1.27-2.91.85-3-1.31.97.86,2.07.93,3.54.19Z"/>
      <path class="cls-4" d="M263.19,216.16c1.19.52-.2,1.65-.78,1.86-.12-.37.46-1.19.78-1.86Z"/>
      <path class="cls-4" d="M239.59,237.07c.71-.95-.02,2.58-1.22,1.22-.28-.92,1.23-.5,1.22-1.22Z"/>
      <path class="cls-4" d="M460.83,311.94c1.4.97-1.03,1.68-.64,2.89-.9-.6.44-2.1.64-2.89Z"/>
    </g>
    <rect class="cls-3" x="327.45" y="200.79" width="67.45" height="198.41"/>
    <rect class="cls-3" x="270.58" y="239.56" width="44.89" height="171.13"/>
    <rect class="cls-3" x="226.49" y="287.72" width="48.11" height="118.1"/>
    <rect class="cls-3" x="393.13" y="262.94" width="39.21" height="125.52"/>
    <rect class="cls-3" x="470.72" y="295.38" width="39.21" height="125.52"/>
    <rect class="cls-3" x="436.85" y="231.83" width="39.2" height="162.9"/>
    <rect class="cls-3" x="302.47" y="316.95" width="41.94" height="82.25"/>
    <path class="cls-6" d="M91.44,395.61c75.6-1.11,89.27-2.89,89.27-2.89,0,0,281.73-38.07,420.73,0,139,38.07,13,69.04-5,101.05-18,32.01-393.78,99.01-431.39,69.01-37.61-30-73.61-167.17-73.61-167.17Z"/>
    <path class="cls-5" d="M111.81,433s125.42-29.45,273.65-28.66c88.61.47,212.63,13.32,250.21,28.66,37.58,15.34-119.65-13.58-298.94-13.58-59.5,0-131.8,14.19-224.93,13.58Z"/>
  </g>
  <text class="cls-7" transform="translate(147.47 507.8)"><tspan x="0" y="0">CITYFOLK</tspan></text>
</svg>